<?xml version="1.0" encoding="UTF-8" standalone="no"?>
<!-- Created with Inkscape (http://www.inkscape.org/) -->

<svg
   width="6.3576088mm"
   height="6.3418441mm"
   viewBox="0 0 6.357609 6.3418441"
   version="1.1"
   id="svg1"
   inkscape:version="1.4.2 (ebf0e940d0, 2025-05-08)"
   sodipodi:docname="INSTAGRAM.svg"
   xml:space="preserve"
   xmlns:inkscape="http://www.inkscape.org/namespaces/inkscape"
   xmlns:sodipodi="http://sodipodi.sourceforge.net/DTD/sodipodi-0.dtd"
   xmlns="http://www.w3.org/2000/svg"
   xmlns:svg="http://www.w3.org/2000/svg"><sodipodi:namedview
     id="namedview1"
     pagecolor="#505050"
     bordercolor="#eeeeee"
     borderopacity="1"
     inkscape:showpageshadow="0"
     inkscape:pageopacity="0"
     inkscape:pagecheckerboard="0"
     inkscape:deskcolor="#505050"
     inkscape:document-units="mm"
     inkscape:zoom="2.8507295"
     inkscape:cx="48.408662"
     inkscape:cy="18.94252"
     inkscape:window-width="1920"
     inkscape:window-height="1011"
     inkscape:window-x="0"
     inkscape:window-y="0"
     inkscape:window-maximized="1"
     inkscape:current-layer="g8" /><defs
     id="defs1"><clipPath
       clipPathUnits="userSpaceOnUse"
       id="clipPath195"><path
         d="m 498.266,274.906 0.004,-0.004 32.441,45.34 h -0.84 l -31.777,-44.406 -69.086,44.406 h -1.293 l 70.547,-45.34 z"
         transform="scale(1.3333333)"
         id="path195" /></clipPath><clipPath
       clipPathUnits="userSpaceOnUse"
       id="clipPath193"><path
         d="M 0,0 H 842 V 596 H 0 Z"
         transform="scale(1.3333333)"
         id="path193" /></clipPath><linearGradient
       x1="0"
       y1="0"
       x2="1"
       y2="0"
       gradientUnits="userSpaceOnUse"
       gradientTransform="matrix(0,-45.340685,45.291499,0,479.21154,294.71533)"
       spreadMethod="pad"
       id="linearGradient192"><stop
         style="stop-opacity:1;stop-color:#ffffff"
         offset="0"
         id="stop190" /><stop
         style="stop-opacity:1;stop-color:#69c530"
         offset="0.497423"
         id="stop191" /><stop
         style="stop-opacity:1;stop-color:#ffffff"
         offset="1"
         id="stop192" /></linearGradient><clipPath
       clipPathUnits="userSpaceOnUse"
       id="clipPath192"><path
         d="M 0,0 H 842 V 596 H 0 Z"
         id="path192" /></clipPath><clipPath
       clipPathUnits="userSpaceOnUse"
       id="clipPath199"><path
         d="m 500.32,263.523 0.004,0.004 h 0.004 l 34.535,48.266 v 1.168 l -34.707,-48.5 -86.726,55.781 h -1.289 z"
         transform="scale(1.3333333)"
         id="path199" /></clipPath><clipPath
       clipPathUnits="userSpaceOnUse"
       id="clipPath197"><path
         d="M 0,0 H 842 V 596 H 0 Z"
         transform="scale(1.3333333)"
         id="path197" /></clipPath><linearGradient
       x1="0"
       y1="0"
       x2="1"
       y2="0"
       gradientUnits="userSpaceOnUse"
       gradientTransform="matrix(23.707055,-76.692112,76.608916,23.7328,469.55977,329.36691)"
       spreadMethod="pad"
       id="linearGradient196"><stop
         style="stop-opacity:1;stop-color:#69c530"
         offset="0"
         id="stop195" /><stop
         style="stop-opacity:1;stop-color:#ffffff"
         offset="1"
         id="stop196" /></linearGradient><clipPath
       clipPathUnits="userSpaceOnUse"
       id="clipPath196"><path
         d="M 0,0 H 842 V 596 H 0 Z"
         id="path196" /></clipPath><clipPath
       clipPathUnits="userSpaceOnUse"
       id="clipPath68"><path
         d="m 592.27,290.426 v 0.004 l -35.887,25.738 v -0.664 l 35.148,-25.211 -35.148,-54.805 v -1.023 z"
         transform="scale(1.3333333)"
         id="path68" /></clipPath><clipPath
       clipPathUnits="userSpaceOnUse"
       id="clipPath66"><path
         d="M 0,0 H 842 V 596 H 0 Z"
         transform="scale(1.3333333)"
         id="path66" /></clipPath><linearGradient
       x1="0"
       y1="0"
       x2="1"
       y2="0"
       gradientUnits="userSpaceOnUse"
       gradientTransform="matrix(35.888779,0,0,35.927754,576.58894,275.31559)"
       spreadMethod="pad"
       id="linearGradient65"><stop
         style="stop-opacity:1;stop-color:#ffffff"
         offset="0"
         id="stop63" /><stop
         style="stop-opacity:1;stop-color:#69c530"
         offset="0.497423"
         id="stop64" /><stop
         style="stop-opacity:1;stop-color:#ffffff"
         offset="1"
         id="stop65" /></linearGradient><clipPath
       clipPathUnits="userSpaceOnUse"
       id="clipPath65"><path
         d="M 0,0 H 842 V 596 H 0 Z"
         id="path65" /></clipPath><clipPath
       clipPathUnits="userSpaceOnUse"
       id="clipPath72"><path
         d="m 601.277,292.062 v 0.004 l -38.203,27.395 h -0.929 l 38.394,-27.531 -44.156,-68.797 v -1.02 z"
         transform="scale(1.3333333)"
         id="path72" /></clipPath><clipPath
       clipPathUnits="userSpaceOnUse"
       id="clipPath70"><path
         d="M 0,0 H 842 V 596 H 0 Z"
         transform="scale(1.3333333)"
         id="path70" /></clipPath><linearGradient
       x1="0"
       y1="0"
       x2="1"
       y2="0"
       gradientUnits="userSpaceOnUse"
       gradientTransform="matrix(60.704172,18.805647,-18.785247,60.770096,549.16155,267.65747)"
       spreadMethod="pad"
       id="linearGradient69"><stop
         style="stop-opacity:1;stop-color:#69c530"
         offset="0"
         id="stop68" /><stop
         style="stop-opacity:1;stop-color:#ffffff"
         offset="1"
         id="stop69" /></linearGradient><clipPath
       clipPathUnits="userSpaceOnUse"
       id="clipPath69"><path
         d="M 0,0 H 842 V 596 H 0 Z"
         id="path69" /></clipPath><clipPath
       clipPathUnits="userSpaceOnUse"
       id="clipPath195-3"><path
         d="m 498.266,274.906 0.004,-0.004 32.441,45.34 h -0.84 l -31.777,-44.406 -69.086,44.406 h -1.293 l 70.547,-45.34 z"
         transform="scale(1.3333333)"
         id="path195-6" /></clipPath><clipPath
       clipPathUnits="userSpaceOnUse"
       id="clipPath193-0"><path
         d="M 0,0 H 842 V 596 H 0 Z"
         transform="scale(1.3333333)"
         id="path193-6" /></clipPath><linearGradient
       x1="0"
       y1="0"
       x2="1"
       y2="0"
       gradientUnits="userSpaceOnUse"
       gradientTransform="matrix(0,-45.340685,45.291499,0,479.21154,294.71533)"
       spreadMethod="pad"
       id="linearGradient192-2"><stop
         style="stop-opacity:1;stop-color:#ffffff"
         offset="0"
         id="stop190-6" /><stop
         style="stop-opacity:1;stop-color:#69c530"
         offset="0.497423"
         id="stop191-1" /><stop
         style="stop-opacity:1;stop-color:#ffffff"
         offset="1"
         id="stop192-8" /></linearGradient><clipPath
       clipPathUnits="userSpaceOnUse"
       id="clipPath192-7"><path
         d="M 0,0 H 842 V 596 H 0 Z"
         id="path192-9" /></clipPath><clipPath
       clipPathUnits="userSpaceOnUse"
       id="clipPath199-2"><path
         d="m 500.32,263.523 0.004,0.004 h 0.004 l 34.535,48.266 v 1.168 l -34.707,-48.5 -86.726,55.781 h -1.289 z"
         transform="scale(1.3333333)"
         id="path199-0" /></clipPath><clipPath
       clipPathUnits="userSpaceOnUse"
       id="clipPath197-2"><path
         d="M 0,0 H 842 V 596 H 0 Z"
         transform="scale(1.3333333)"
         id="path197-3" /></clipPath><linearGradient
       x1="0"
       y1="0"
       x2="1"
       y2="0"
       gradientUnits="userSpaceOnUse"
       gradientTransform="matrix(23.707055,-76.692112,76.608916,23.7328,469.55977,329.36691)"
       spreadMethod="pad"
       id="linearGradient196-7"><stop
         style="stop-opacity:1;stop-color:#69c530"
         offset="0"
         id="stop195-5" /><stop
         style="stop-opacity:1;stop-color:#ffffff"
         offset="1"
         id="stop196-9" /></linearGradient><clipPath
       clipPathUnits="userSpaceOnUse"
       id="clipPath196-2"><path
         d="M 0,0 H 842 V 596 H 0 Z"
         id="path196-2" /></clipPath><clipPath
       clipPathUnits="userSpaceOnUse"
       id="clipPath56"><path
         d="m 735.926,40.984 -0.004,-0.004 35.89,-23.918 v 0.622 l -35.148,23.425 35.148,50.926 v 0.949 l -35.89,-52 z"
         transform="scale(1.3333333)"
         id="path56" /></clipPath><clipPath
       clipPathUnits="userSpaceOnUse"
       id="clipPath54"><path
         d="M 0,0 H 842 V 596 H 0 Z"
         transform="scale(1.3333333)"
         id="path54" /></clipPath><linearGradient
       x1="0"
       y1="0"
       x2="1"
       y2="0"
       gradientUnits="userSpaceOnUse"
       gradientTransform="matrix(-35.888779,0,0,-35.927754,751.60576,55.026158)"
       spreadMethod="pad"
       id="linearGradient53"><stop
         style="stop-opacity:1;stop-color:#ffffff"
         offset="0"
         id="stop51" /><stop
         style="stop-opacity:1;stop-color:#69c530"
         offset="0.497423"
         id="stop52" /><stop
         style="stop-opacity:1;stop-color:#ffffff"
         offset="1"
         id="stop53" /></linearGradient><clipPath
       clipPathUnits="userSpaceOnUse"
       id="clipPath53"><path
         d="M 0,0 H 842 V 596 H 0 Z"
         id="path53" /></clipPath><clipPath
       clipPathUnits="userSpaceOnUse"
       id="clipPath60"><path
         d="m 726.918,39.469 v -0.004 l 38.203,-25.461 h 0.93 l -38.395,25.586 44.156,63.926 v 0.949 z"
         transform="scale(1.3333333)"
         id="path60" /></clipPath><clipPath
       clipPathUnits="userSpaceOnUse"
       id="clipPath58"><path
         d="M 0,0 H 842 V 596 H 0 Z"
         transform="scale(1.3333333)"
         id="path58" /></clipPath><linearGradient
       x1="0"
       y1="0"
       x2="1"
       y2="0"
       gradientUnits="userSpaceOnUse"
       gradientTransform="matrix(-59.307986,-18.373083,18.353152,-59.372394,778.20519,62.106371)"
       spreadMethod="pad"
       id="linearGradient57"><stop
         style="stop-opacity:1;stop-color:#69c530"
         offset="0"
         id="stop56" /><stop
         style="stop-opacity:1;stop-color:#ffffff"
         offset="1"
         id="stop57" /></linearGradient><clipPath
       clipPathUnits="userSpaceOnUse"
       id="clipPath57"><path
         d="M 0,0 H 842 V 596 H 0 Z"
         id="path57" /></clipPath><clipPath
       clipPathUnits="userSpaceOnUse"
       id="clipPath89"><path
         d="m 208.871,490.324 h -0.004 l 31.039,-20.683 v 0.531 l -30.394,20.258 30.394,44.043 v 0.82 l -31.039,-44.965 z"
         transform="scale(1.3333333)"
         id="path89" /></clipPath><clipPath
       clipPathUnits="userSpaceOnUse"
       id="clipPath87"><path
         d="M 0,0 H 842 V 596 H 0 Z"
         transform="scale(1.3333333)"
         id="path87" /></clipPath><linearGradient
       x1="0"
       y1="0"
       x2="1"
       y2="0"
       gradientUnits="userSpaceOnUse"
       gradientTransform="matrix(-31.035011,0,0,-31.068714,222.42987,502.46675)"
       spreadMethod="pad"
       id="linearGradient86"><stop
         style="stop-opacity:1;stop-color:#ffffff"
         offset="0"
         id="stop84" /><stop
         style="stop-opacity:1;stop-color:#69c530"
         offset="0.497423"
         id="stop85" /><stop
         style="stop-opacity:1;stop-color:#ffffff"
         offset="1"
         id="stop86" /></linearGradient><clipPath
       clipPathUnits="userSpaceOnUse"
       id="clipPath86"><path
         d="M 0,0 H 842 V 596 H 0 Z"
         id="path86" /></clipPath><clipPath
       clipPathUnits="userSpaceOnUse"
       id="clipPath93"><path
         d="m 201.082,489.012 0.004,-0.004 33.031,-22.016 h 0.805 l -33.199,22.125 38.183,55.281 v 0.821 z"
         transform="scale(1.3333333)"
         id="path93" /></clipPath><clipPath
       clipPathUnits="userSpaceOnUse"
       id="clipPath91"><path
         d="M 0,0 H 842 V 596 H 0 Z"
         transform="scale(1.3333333)"
         id="path91" /></clipPath><linearGradient
       x1="0"
       y1="0"
       x2="1"
       y2="0"
       gradientUnits="userSpaceOnUse"
       gradientTransform="matrix(-51.286906,-15.888282,15.871047,-51.342603,245.43348,508.5928)"
       spreadMethod="pad"
       id="linearGradient90"><stop
         style="stop-opacity:1;stop-color:#69c530"
         offset="0"
         id="stop89" /><stop
         style="stop-opacity:1;stop-color:#ffffff"
         offset="1"
         id="stop90" /></linearGradient><clipPath
       clipPathUnits="userSpaceOnUse"
       id="clipPath90"><path
         d="M 0,0 H 842 V 596 H 0 Z"
         id="path90" /></clipPath><clipPath
       clipPathUnits="userSpaceOnUse"
       id="clipPath101"><path
         d="m 74.164,554.457 -31.035,22.254 v -0.574 L 73.523,554.34 43.129,506.945 v -0.886 l 31.035,48.394 z"
         transform="scale(1.3333333)"
         id="path101" /></clipPath><clipPath
       clipPathUnits="userSpaceOnUse"
       id="clipPath99"><path
         d="M 0,0 H 842 V 596 H 0 Z"
         transform="scale(1.3333333)"
         id="path99" /></clipPath><linearGradient
       x1="0"
       y1="0"
       x2="1"
       y2="0"
       gradientUnits="userSpaceOnUse"
       gradientTransform="matrix(31.035011,0,0,31.068714,60.602764,541.3877)"
       spreadMethod="pad"
       id="linearGradient98"><stop
         style="stop-opacity:1;stop-color:#ffffff"
         offset="0"
         id="stop96" /><stop
         style="stop-opacity:1;stop-color:#69c530"
         offset="0.497423"
         id="stop97" /><stop
         style="stop-opacity:1;stop-color:#ffffff"
         offset="1"
         id="stop98" /></linearGradient><clipPath
       clipPathUnits="userSpaceOnUse"
       id="clipPath98"><path
         d="M 0,0 H 842 V 596 H 0 Z"
         id="path98" /></clipPath><clipPath
       clipPathUnits="userSpaceOnUse"
       id="clipPath105"><path
         d="m 81.953,555.867 h -0.004 v 0.004 L 48.914,579.562 H 48.113 L 81.312,555.75 43.129,496.262 v -0.883 z"
         transform="scale(1.3333333)"
         id="path105" /></clipPath><clipPath
       clipPathUnits="userSpaceOnUse"
       id="clipPath103"><path
         d="M 0,0 H 842 V 596 H 0 Z"
         transform="scale(1.3333333)"
         id="path103" /></clipPath><linearGradient
       x1="0"
       y1="0"
       x2="1"
       y2="0"
       gradientUnits="userSpaceOnUse"
       gradientTransform="matrix(52.494568,16.262339,-16.244698,52.551576,36.884868,534.76378)"
       spreadMethod="pad"
       id="linearGradient102"><stop
         style="stop-opacity:1;stop-color:#69c530"
         offset="0"
         id="stop101" /><stop
         style="stop-opacity:1;stop-color:#ffffff"
         offset="1"
         id="stop102" /></linearGradient><clipPath
       clipPathUnits="userSpaceOnUse"
       id="clipPath102"><path
         d="M 0,0 H 842 V 596 H 0 Z"
         id="path102" /></clipPath><clipPath
       clipPathUnits="userSpaceOnUse"
       id="clipPath119"><path
         d="m 67.535,438.125 v 0.004 l -24.859,17.824 v -0.457 L 67.023,438.031 42.676,400.066 v -0.707 z"
         transform="scale(1.3333333)"
         id="path119" /></clipPath><clipPath
       clipPathUnits="userSpaceOnUse"
       id="clipPath117"><path
         d="M 0,0 H 842 V 596 H 0 Z"
         transform="scale(1.3333333)"
         id="path117" /></clipPath><linearGradient
       x1="0"
       y1="0"
       x2="1"
       y2="0"
       gradientUnits="userSpaceOnUse"
       gradientTransform="matrix(24.861305,0,0,24.888304,56.672616,427.65456)"
       spreadMethod="pad"
       id="linearGradient116"><stop
         style="stop-opacity:1;stop-color:#ffffff"
         offset="0"
         id="stop114" /><stop
         style="stop-opacity:1;stop-color:#69c530"
         offset="0.497423"
         id="stop115" /><stop
         style="stop-opacity:1;stop-color:#ffffff"
         offset="1"
         id="stop116" /></linearGradient><clipPath
       clipPathUnits="userSpaceOnUse"
       id="clipPath116"><path
         d="M 0,0 H 842 V 596 H 0 Z"
         id="path116" /></clipPath><clipPath
       clipPathUnits="userSpaceOnUse"
       id="clipPath123"><path
         d="m 73.777,439.254 h -0.004 v 0.004 L 47.309,458.234 H 46.668 L 73.262,439.16 42.676,391.508 v -0.707 z"
         transform="scale(1.3333333)"
         id="path123" /></clipPath><clipPath
       clipPathUnits="userSpaceOnUse"
       id="clipPath121"><path
         d="M 0,0 H 842 V 596 H 0 Z"
         transform="scale(1.3333333)"
         id="path121" /></clipPath><linearGradient
       x1="0"
       y1="0"
       x2="1"
       y2="0"
       gradientUnits="userSpaceOnUse"
       gradientTransform="matrix(42.051839,13.027321,-13.013189,42.097507,37.67291,422.35008)"
       spreadMethod="pad"
       id="linearGradient120"><stop
         style="stop-opacity:1;stop-color:#69c530"
         offset="0"
         id="stop119" /><stop
         style="stop-opacity:1;stop-color:#ffffff"
         offset="1"
         id="stop120" /></linearGradient><clipPath
       clipPathUnits="userSpaceOnUse"
       id="clipPath120"><path
         d="M 0,0 H 842 V 596 H 0 Z"
         id="path120" /></clipPath><clipPath
       clipPathUnits="userSpaceOnUse"
       id="clipPath1458"><path
         d="m 206.031,425.926 h 28.25 v 28.281 h -28.25 z"
         transform="matrix(0.03539807,0,0,0.03535968,-7.2931424,-15.060558)"
         id="path1458" /></clipPath><clipPath
       clipPathUnits="userSpaceOnUse"
       id="clipPath1473"><path
         d="M 0,103.168 H 842 V 596 H 0 Z"
         transform="matrix(1,0,0,0.99891513,-408.07268,-454.40954)"
         id="path1473" /></clipPath><clipPath
       clipPathUnits="userSpaceOnUse"
       id="clipPath159"><path
         d="m 346.52,368.512 29.015,-19.336 v 0.496 l -28.418,18.945 28.418,41.176 v 0.769 L 346.52,368.516 Z"
         transform="scale(1.3333333)"
         id="path159" /></clipPath><clipPath
       clipPathUnits="userSpaceOnUse"
       id="clipPath157"><path
         d="M 0,0 H 842 V 596 H 0 Z"
         transform="scale(1.3333333)"
         id="path157" /></clipPath><linearGradient
       x1="0"
       y1="0"
       x2="1"
       y2="0"
       gradientUnits="userSpaceOnUse"
       gradientTransform="matrix(-29.018364,0,0,-29.049877,359.19865,379.86645)"
       spreadMethod="pad"
       id="linearGradient156"><stop
         style="stop-opacity:1;stop-color:#ffffff"
         offset="0"
         id="stop154" /><stop
         style="stop-opacity:1;stop-color:#69c530"
         offset="0.497423"
         id="stop155" /><stop
         style="stop-opacity:1;stop-color:#ffffff"
         offset="1"
         id="stop156" /></linearGradient><clipPath
       clipPathUnits="userSpaceOnUse"
       id="clipPath156"><path
         d="M 0,0 H 842 V 596 H 0 Z"
         id="path156" /></clipPath><clipPath
       clipPathUnits="userSpaceOnUse"
       id="clipPath163"><path
         d="m 339.238,367.289 v -0.004 l 30.891,-20.586 h 0.75 l -31.043,20.688 35.699,51.687 v 0.77 z"
         transform="scale(1.3333333)"
         id="path163" /></clipPath><clipPath
       clipPathUnits="userSpaceOnUse"
       id="clipPath161"><path
         d="M 0,0 H 842 V 596 H 0 Z"
         transform="scale(1.3333333)"
         id="path161" /></clipPath><linearGradient
       x1="0"
       y1="0"
       x2="1"
       y2="0"
       gradientUnits="userSpaceOnUse"
       gradientTransform="matrix(-47.954475,-14.855866,14.83975,-48.006553,380.70635,385.59537)"
       spreadMethod="pad"
       id="linearGradient160"><stop
         style="stop-opacity:1;stop-color:#69c530"
         offset="0"
         id="stop159" /><stop
         style="stop-opacity:1;stop-color:#ffffff"
         offset="1"
         id="stop160" /></linearGradient><clipPath
       clipPathUnits="userSpaceOnUse"
       id="clipPath160"><path
         d="M 0,0 H 842 V 596 H 0 Z"
         id="path160" /></clipPath><clipPath
       clipPathUnits="userSpaceOnUse"
       id="clipPath171"><path
         d="m 278.52,510.828 h 0.003 l -20.945,15.02 v -0.387 L 278.09,510.75 257.578,478.77 v -0.598 l 20.945,32.656 z"
         transform="scale(1.3333333)"
         id="path171" /></clipPath><clipPath
       clipPathUnits="userSpaceOnUse"
       id="clipPath169"><path
         d="M 0,0 H 842 V 596 H 0 Z"
         transform="scale(1.3333333)"
         id="path169" /></clipPath><linearGradient
       x1="0"
       y1="0"
       x2="1"
       y2="0"
       gradientUnits="userSpaceOnUse"
       gradientTransform="matrix(20.942949,0,0,20.965693,269.36857,502.00846)"
       spreadMethod="pad"
       id="linearGradient168"><stop
         style="stop-opacity:1;stop-color:#ffffff"
         offset="0"
         id="stop166" /><stop
         style="stop-opacity:1;stop-color:#69c530"
         offset="0.497423"
         id="stop167" /><stop
         style="stop-opacity:1;stop-color:#ffffff"
         offset="1"
         id="stop168" /></linearGradient><clipPath
       clipPathUnits="userSpaceOnUse"
       id="clipPath168"><path
         d="M 0,0 H 842 V 596 H 0 Z"
         id="path168" /></clipPath><clipPath
       clipPathUnits="userSpaceOnUse"
       id="clipPath175"><path
         d="m 283.777,511.777 h -0.004 v 0.004 l -22.289,15.989 h -0.543 l 22.407,-16.071 -25.77,-40.14 v -0.598 z"
         transform="scale(1.3333333)"
         id="path175" /></clipPath><clipPath
       clipPathUnits="userSpaceOnUse"
       id="clipPath173"><path
         d="M 0,0 H 842 V 596 H 0 Z"
         transform="scale(1.3333333)"
         id="path173" /></clipPath><linearGradient
       x1="0"
       y1="0"
       x2="1"
       y2="0"
       gradientUnits="userSpaceOnUse"
       gradientTransform="matrix(35.424166,10.974132,-10.962227,35.462636,253.36314,497.53869)"
       spreadMethod="pad"
       id="linearGradient172"><stop
         style="stop-opacity:1;stop-color:#69c530"
         offset="0"
         id="stop171" /><stop
         style="stop-opacity:1;stop-color:#ffffff"
         offset="1"
         id="stop172" /></linearGradient><clipPath
       clipPathUnits="userSpaceOnUse"
       id="clipPath172"><path
         d="M 0,0 H 842 V 596 H 0 Z"
         id="path172" /></clipPath><clipPath
       clipPathUnits="userSpaceOnUse"
       id="clipPath1496"><path
         d="M 0,103.168 H 842 V 596 H 0 Z"
         id="path1496" /></clipPath><clipPath
       clipPathUnits="userSpaceOnUse"
       id="clipPath1498"><path
         d="M 0,103.168 H 842 V 596 H 0 Z"
         id="path1498" /></clipPath><clipPath
       clipPathUnits="userSpaceOnUse"
       id="clipPath1500"><path
         d="M 0,103.168 H 842 V 596 H 0 Z"
         id="path1500" /></clipPath><clipPath
       clipPathUnits="userSpaceOnUse"
       id="clipPath1589"><path
         d="m 338.156,406.875 h -37.789 l -18.894,32.762 18.894,32.761 h 37.789 l 18.895,-32.761 z"
         transform="scale(1.3333333)"
         id="path1589" /></clipPath><clipPath
       clipPathUnits="userSpaceOnUse"
       id="clipPath1501"><path
         d="M 0,0 H 842 V 596 H 0 Z"
         id="path1501" /></clipPath><clipPath
       clipPathUnits="userSpaceOnUse"
       id="clipPath1506"><path
         d="m 306,433 h 26 v 40 h -26 z"
         transform="scale(1.3333333)"
         id="path1506" /></clipPath><clipPath
       clipPathUnits="userSpaceOnUse"
       id="clipPath1505"><path
         d="M 0,0 H 842 V 596 H 0 Z"
         transform="scale(1.3333333)"
         id="path1505" /></clipPath><linearGradient
       x1="0"
       y1="0"
       x2="1"
       y2="0"
       gradientUnits="userSpaceOnUse"
       gradientTransform="matrix(-1.562433,-18.222085,18.202318,-1.564129,319.83356,456.26027)"
       spreadMethod="pad"
       id="linearGradient1504"><stop
         style="stop-opacity:1;stop-color:#fcd2cc"
         offset="0"
         id="stop1501" /><stop
         style="stop-opacity:1;stop-color:#f9ddc5"
         offset="0.407907"
         id="stop1502" /><stop
         style="stop-opacity:1;stop-color:#f0572f"
         offset="0.986034"
         id="stop1503" /><stop
         style="stop-opacity:1;stop-color:#f0572f"
         offset="1"
         id="stop1504" /></linearGradient><clipPath
       clipPathUnits="userSpaceOnUse"
       id="clipPath1504"><path
         d="M 0,0 H 842 V 596 H 0 Z"
         id="path1504" /></clipPath><clipPath
       clipPathUnits="userSpaceOnUse"
       id="clipPath1511"><path
         d="m 306,415 h 22 v 29 h -22 z"
         transform="scale(1.3333333)"
         id="path1511" /></clipPath><clipPath
       clipPathUnits="userSpaceOnUse"
       id="clipPath1510"><path
         d="M 0,0 H 842 V 596 H 0 Z"
         transform="scale(1.3333333)"
         id="path1510" /></clipPath><linearGradient
       x1="0"
       y1="0"
       x2="1"
       y2="0"
       gradientUnits="userSpaceOnUse"
       gradientTransform="matrix(-2.080389,-60.502609,60.436975,-2.082648,318.5218,466.84715)"
       spreadMethod="pad"
       id="linearGradient1509"><stop
         style="stop-opacity:1;stop-color:#fcd2cc"
         offset="0"
         id="stop1506" /><stop
         style="stop-opacity:1;stop-color:#f9ddc5"
         offset="0.407907"
         id="stop1507" /><stop
         style="stop-opacity:1;stop-color:#f0572f"
         offset="0.986034"
         id="stop1508" /><stop
         style="stop-opacity:1;stop-color:#f0572f"
         offset="1"
         id="stop1509" /></linearGradient><clipPath
       clipPathUnits="userSpaceOnUse"
       id="clipPath1509"><path
         d="M 0,0 H 842 V 596 H 0 Z"
         id="path1509" /></clipPath><clipPath
       clipPathUnits="userSpaceOnUse"
       id="clipPath1512"><path
         d="m 338.156,406.875 h -37.789 l -18.894,32.762 18.894,32.761 h 37.789 l 18.895,-32.761 z"
         id="path1512" /></clipPath><clipPath
       clipPathUnits="userSpaceOnUse"
       id="clipPath1513"><path
         d="m 338.156,406.875 h -37.789 l -18.894,32.762 18.894,32.761 h 37.789 l 18.895,-32.761 z"
         id="path1513" /></clipPath><clipPath
       clipPathUnits="userSpaceOnUse"
       id="clipPath1514"><path
         d="m 338.156,406.875 h -37.789 l -18.894,32.762 18.894,32.761 h 37.789 l 18.895,-32.761 z"
         id="path1514" /></clipPath><clipPath
       clipPathUnits="userSpaceOnUse"
       id="clipPath1515"><path
         d="m 338.156,406.875 h -37.789 l -18.894,32.762 18.894,32.761 h 37.789 l 18.895,-32.761 z"
         id="path1515" /></clipPath><clipPath
       clipPathUnits="userSpaceOnUse"
       id="clipPath1516"><path
         d="m 338.156,406.875 h -37.789 l -18.894,32.762 18.894,32.761 h 37.789 l 18.895,-32.761 z"
         id="path1516" /></clipPath><clipPath
       clipPathUnits="userSpaceOnUse"
       id="clipPath1517"><path
         d="m 338.156,406.875 h -37.789 l -18.894,32.762 18.894,32.761 h 37.789 l 18.895,-32.761 z"
         id="path1517" /></clipPath><clipPath
       clipPathUnits="userSpaceOnUse"
       id="clipPath1518"><path
         d="m 338.156,406.875 h -37.789 l -18.894,32.762 18.894,32.761 h 37.789 l 18.895,-32.761 z"
         id="path1518" /></clipPath><clipPath
       clipPathUnits="userSpaceOnUse"
       id="clipPath1519"><path
         d="m 338.156,406.875 h -37.789 l -18.894,32.762 18.894,32.761 h 37.789 l 18.895,-32.761 z"
         id="path1519" /></clipPath><clipPath
       clipPathUnits="userSpaceOnUse"
       id="clipPath1520"><path
         d="m 338.156,406.875 h -37.789 l -18.894,32.762 18.894,32.761 h 37.789 l 18.895,-32.761 z"
         id="path1520" /></clipPath><clipPath
       clipPathUnits="userSpaceOnUse"
       id="clipPath1521"><path
         d="m 338.156,406.875 h -37.789 l -18.894,32.762 18.894,32.761 h 37.789 l 18.895,-32.761 z"
         id="path1521" /></clipPath><clipPath
       clipPathUnits="userSpaceOnUse"
       id="clipPath1522"><path
         d="m 338.156,406.875 h -37.789 l -18.894,32.762 18.894,32.761 h 37.789 l 18.895,-32.761 z"
         id="path1522" /></clipPath><clipPath
       clipPathUnits="userSpaceOnUse"
       id="clipPath1523"><path
         d="m 338.156,406.875 h -37.789 l -18.894,32.762 18.894,32.761 h 37.789 l 18.895,-32.761 z"
         id="path1523" /></clipPath><clipPath
       clipPathUnits="userSpaceOnUse"
       id="clipPath1524"><path
         d="m 338.156,406.875 h -37.789 l -18.894,32.762 18.894,32.761 h 37.789 l 18.895,-32.761 z"
         id="path1524" /></clipPath><clipPath
       clipPathUnits="userSpaceOnUse"
       id="clipPath1525"><path
         d="m 338.156,406.875 h -37.789 l -18.894,32.762 18.894,32.761 h 37.789 l 18.895,-32.761 z"
         id="path1525" /></clipPath><clipPath
       clipPathUnits="userSpaceOnUse"
       id="clipPath1526"><path
         d="m 338.156,406.875 h -37.789 l -18.894,32.762 18.894,32.761 h 37.789 l 18.895,-32.761 z"
         id="path1526" /></clipPath><clipPath
       clipPathUnits="userSpaceOnUse"
       id="clipPath1527"><path
         d="m 338.156,406.875 h -37.789 l -18.894,32.762 18.894,32.761 h 37.789 l 18.895,-32.761 z"
         id="path1527" /></clipPath><clipPath
       clipPathUnits="userSpaceOnUse"
       id="clipPath1528"><path
         d="m 338.156,406.875 h -37.789 l -18.894,32.762 18.894,32.761 h 37.789 l 18.895,-32.761 z"
         id="path1528" /></clipPath><clipPath
       clipPathUnits="userSpaceOnUse"
       id="clipPath1529"><path
         d="m 338.156,406.875 h -37.789 l -18.894,32.762 18.894,32.761 h 37.789 l 18.895,-32.761 z"
         id="path1529" /></clipPath><clipPath
       clipPathUnits="userSpaceOnUse"
       id="clipPath1530"><path
         d="m 338.156,406.875 h -37.789 l -18.894,32.762 18.894,32.761 h 37.789 l 18.895,-32.761 z"
         id="path1530" /></clipPath><clipPath
       clipPathUnits="userSpaceOnUse"
       id="clipPath1531"><path
         d="m 338.156,406.875 h -37.789 l -18.894,32.762 18.894,32.761 h 37.789 l 18.895,-32.761 z"
         id="path1531" /></clipPath><clipPath
       clipPathUnits="userSpaceOnUse"
       id="clipPath1532"><path
         d="m 338.156,406.875 h -37.789 l -18.894,32.762 18.894,32.761 h 37.789 l 18.895,-32.761 z"
         id="path1532" /></clipPath><clipPath
       clipPathUnits="userSpaceOnUse"
       id="clipPath1533"><path
         d="m 338.156,406.875 h -37.789 l -18.894,32.762 18.894,32.761 h 37.789 l 18.895,-32.761 z"
         id="path1533" /></clipPath><clipPath
       clipPathUnits="userSpaceOnUse"
       id="clipPath1534"><path
         d="m 338.156,406.875 h -37.789 l -18.894,32.762 18.894,32.761 h 37.789 l 18.895,-32.761 z"
         id="path1534" /></clipPath><clipPath
       clipPathUnits="userSpaceOnUse"
       id="clipPath1535"><path
         d="m 338.156,406.875 h -37.789 l -18.894,32.762 18.894,32.761 h 37.789 l 18.895,-32.761 z"
         id="path1535" /></clipPath><clipPath
       clipPathUnits="userSpaceOnUse"
       id="clipPath1536"><path
         d="m 338.156,406.875 h -37.789 l -18.894,32.762 18.894,32.761 h 37.789 l 18.895,-32.761 z"
         id="path1536" /></clipPath><clipPath
       clipPathUnits="userSpaceOnUse"
       id="clipPath1537"><path
         d="m 338.156,406.875 h -37.789 l -18.894,32.762 18.894,32.761 h 37.789 l 18.895,-32.761 z"
         id="path1537" /></clipPath><clipPath
       clipPathUnits="userSpaceOnUse"
       id="clipPath1542"><path
         d="m 305,425 h 4 v 9 h -4 z"
         transform="scale(1.3333333)"
         id="path1542" /></clipPath><clipPath
       clipPathUnits="userSpaceOnUse"
       id="clipPath1541"><path
         d="M 0,0 H 842 V 596 H 0 Z"
         transform="scale(1.3333333)"
         id="path1541" /></clipPath><linearGradient
       x1="0"
       y1="0"
       x2="1"
       y2="0"
       gradientUnits="userSpaceOnUse"
       gradientTransform="matrix(7.831759,0.207064,-0.206839,7.840264,302.56384,429.30197)"
       spreadMethod="pad"
       id="linearGradient1540"><stop
         style="stop-opacity:1;stop-color:#fcd2cc"
         offset="0"
         id="stop1537" /><stop
         style="stop-opacity:1;stop-color:#f9ddc5"
         offset="0.495881"
         id="stop1538" /><stop
         style="stop-opacity:1;stop-color:#f0572f"
         offset="0.986033"
         id="stop1539" /><stop
         style="stop-opacity:1;stop-color:#f0572f"
         offset="1"
         id="stop1540" /></linearGradient><clipPath
       clipPathUnits="userSpaceOnUse"
       id="clipPath1540"><path
         d="M 0,0 H 842 V 596 H 0 Z"
         id="path1540" /></clipPath><clipPath
       clipPathUnits="userSpaceOnUse"
       id="clipPath1543"><path
         d="m 338.156,406.875 h -37.789 l -18.894,32.762 18.894,32.761 h 37.789 l 18.895,-32.761 z"
         id="path1543" /></clipPath><clipPath
       clipPathUnits="userSpaceOnUse"
       id="clipPath1544"><path
         d="m 338.156,406.875 h -37.789 l -18.894,32.762 18.894,32.761 h 37.789 l 18.895,-32.761 z"
         id="path1544" /></clipPath><clipPath
       clipPathUnits="userSpaceOnUse"
       id="clipPath1545"><path
         d="m 338.156,406.875 h -37.789 l -18.894,32.762 18.894,32.761 h 37.789 l 18.895,-32.761 z"
         id="path1545" /></clipPath><clipPath
       clipPathUnits="userSpaceOnUse"
       id="clipPath1546"><path
         d="m 338.156,406.875 h -37.789 l -18.894,32.762 18.894,32.761 h 37.789 l 18.895,-32.761 z"
         id="path1546" /></clipPath><clipPath
       clipPathUnits="userSpaceOnUse"
       id="clipPath1547"><path
         d="m 338.156,406.875 h -37.789 l -18.894,32.762 18.894,32.761 h 37.789 l 18.895,-32.761 z"
         id="path1547" /></clipPath><clipPath
       clipPathUnits="userSpaceOnUse"
       id="clipPath1548"><path
         d="m 338.156,406.875 h -37.789 l -18.894,32.762 18.894,32.761 h 37.789 l 18.895,-32.761 z"
         id="path1548" /></clipPath><clipPath
       clipPathUnits="userSpaceOnUse"
       id="clipPath146"><path
         d="m 473.609,496.93 20.403,30.675 h -0.528 L 473.5,497.559 430.062,527.605 h -0.812 z"
         transform="scale(1.3333333)"
         id="path146" /></clipPath><clipPath
       clipPathUnits="userSpaceOnUse"
       id="clipPath144"><path
         d="M 0,0 H 842 V 596 H 0 Z"
         transform="scale(1.3333333)"
         id="path144" /></clipPath><linearGradient
       x1="0"
       y1="0"
       x2="1"
       y2="0"
       gradientUnits="userSpaceOnUse"
       gradientTransform="matrix(0,-30.678841,30.64556,0,461.63273,510.32929)"
       spreadMethod="pad"
       id="linearGradient143"><stop
         style="stop-opacity:1;stop-color:#ffffff"
         offset="0"
         id="stop141" /><stop
         style="stop-opacity:1;stop-color:#69c530"
         offset="0.497423"
         id="stop142" /><stop
         style="stop-opacity:1;stop-color:#ffffff"
         offset="1"
         id="stop143" /></linearGradient><clipPath
       clipPathUnits="userSpaceOnUse"
       id="clipPath143"><path
         d="M 0,0 H 842 V 596 H 0 Z"
         id="path143" /></clipPath><clipPath
       clipPathUnits="userSpaceOnUse"
       id="clipPath150"><path
         d="m 474.902,489.227 h 0.004 l 21.715,32.66 v 0.793 l -21.82,-32.821 -54.531,37.746 h -0.809 z"
         transform="scale(1.3333333)"
         id="path150" /></clipPath><clipPath
       clipPathUnits="userSpaceOnUse"
       id="clipPath148"><path
         d="M 0,0 H 842 V 596 H 0 Z"
         transform="scale(1.3333333)"
         id="path148" /></clipPath><linearGradient
       x1="0"
       y1="0"
       x2="1"
       y2="0"
       gradientUnits="userSpaceOnUse"
       gradientTransform="matrix(15.671845,-50.69826,50.643263,15.688865,455.59063,533.06809)"
       spreadMethod="pad"
       id="linearGradient147"><stop
         style="stop-opacity:1;stop-color:#69c530"
         offset="0"
         id="stop146" /><stop
         style="stop-opacity:1;stop-color:#ffffff"
         offset="1"
         id="stop147" /></linearGradient><clipPath
       clipPathUnits="userSpaceOnUse"
       id="clipPath147"><path
         d="M 0,0 H 842 V 596 H 0 Z"
         id="path147" /></clipPath><clipPath
       clipPathUnits="userSpaceOnUse"
       id="clipPath1466"><path
         d="m 417.504,378.93 h 37.914 v 37.957 h -37.914 z"
         transform="matrix(0.02637494,0,0,0.02634632,-11.011647,-9.9834405)"
         id="path1466" /></clipPath><clipPath
       clipPathUnits="userSpaceOnUse"
       id="clipPath1469"><path
         d="M 0,103.168 H 842 V 596 H 0 Z"
         transform="scale(1.3333333)"
         id="path1469" /></clipPath><clipPath
       clipPathUnits="userSpaceOnUse"
       id="clipPath1467"><path
         d="M 0,0 H 842 V 596 H 0 Z"
         id="path1467" /></clipPath><clipPath
       clipPathUnits="userSpaceOnUse"
       id="clipPath1471"><path
         d="M 0,103.168 H 842 V 596 H 0 Z"
         id="path1471" /></clipPath><clipPath
       clipPathUnits="userSpaceOnUse"
       id="clipPath1472"><path
         d="M 0,103.168 H 842 V 596 H 0 Z"
         transform="matrix(1,0,0,0.9989152,-408.747,-433.67776)"
         id="path1472" /></clipPath><clipPath
       clipPathUnits="userSpaceOnUse"
       id="clipPath1473-0"><path
         d="M 0,103.168 H 842 V 596 H 0 Z"
         transform="matrix(1,0,0,0.99891513,-408.07268,-454.40954)"
         id="path1473-6" /></clipPath><clipPath
       clipPathUnits="userSpaceOnUse"
       id="clipPath1475"><path
         d="M 0,103.168 H 842 V 596 H 0 Z"
         id="path1475" /></clipPath><clipPath
       clipPathUnits="userSpaceOnUse"
       id="clipPath1476"><path
         d="M 0,103.168 H 842 V 596 H 0 Z"
         transform="matrix(1,0,0,0.99891513,-410.37117,-469.98093)"
         id="path1476" /></clipPath><clipPath
       clipPathUnits="userSpaceOnUse"
       id="clipPath1473-5"><path
         d="M 0,103.168 H 842 V 596 H 0 Z"
         transform="matrix(1,0,0,0.99891513,-408.07268,-454.40954)"
         id="path1473-69" /></clipPath><clipPath
       clipPathUnits="userSpaceOnUse"
       id="clipPath1"><path
         d="M 0,103.168 H 842 V 596 H 0 Z"
         transform="matrix(1,0,0,0.99891513,-408.07268,-454.40954)"
         id="path1" /></clipPath><clipPath
       clipPathUnits="userSpaceOnUse"
       id="clipPath2"><path
         d="M 0,103.168 H 842 V 596 H 0 Z"
         transform="matrix(1,0,0,0.99891513,-408.07268,-454.40954)"
         id="path2" /></clipPath><clipPath
       clipPathUnits="userSpaceOnUse"
       id="clipPath3"><path
         d="M 0,103.168 H 842 V 596 H 0 Z"
         transform="matrix(1,0,0,0.99891513,-408.07268,-454.40954)"
         id="path3" /></clipPath><clipPath
       clipPathUnits="userSpaceOnUse"
       id="clipPath4"><path
         d="M 0,103.168 H 842 V 596 H 0 Z"
         transform="matrix(1,0,0,0.99891513,-408.07268,-454.40954)"
         id="path4" /></clipPath><clipPath
       clipPathUnits="userSpaceOnUse"
       id="clipPath5"><path
         d="M 0,103.168 H 842 V 596 H 0 Z"
         transform="matrix(1,0,0,0.99891513,-408.07268,-454.40954)"
         id="path5" /></clipPath></defs><g
     inkscape:label="Capa 1"
     inkscape:groupmode="layer"
     id="layer1"
     transform="translate(-50.332979,-87.740142)"><g
       id="g8"
       transform="translate(-41.394788,0.7425)"><path
         id="path1464"
         d="m 94.510754,89.575221 c -0.344316,0.229333 -0.436801,0.696124 -0.207467,1.042313 0.231836,0.344302 0.697998,0.436787 1.042313,0.204965 0.344315,-0.229334 0.436787,-0.695523 0.207454,-1.042314 -0.231823,-0.343686 -0.697985,-0.436801 -1.0423,-0.204964 z m 2.001495,-0.964187 c -0.07316,-0.07316 -0.161218,-0.131693 -0.258695,-0.16811 -0.253703,-0.09983 -0.810477,-0.09737 -1.169151,-0.09327 -0.0562,0 -0.109949,0.0014 -0.156212,0.0014 -0.04622,0 -0.102428,0 -0.161232,-0.0014 -0.358688,-0.0027 -0.910456,-0.0096 -1.166662,0.09327 -0.0975,0.03638 -0.183084,0.09504 -0.258695,0.16811 -0.07316,0.07316 -0.129367,0.16119 -0.168725,0.258694 -0.09997,0.254333 -0.09504,0.81298 -0.09244,1.171654 0,0.0588 0.0027,0.112411 0.0027,0.156226 0,0.04691 0,0.10065 -0.0027,0.15624 -0.0027,0.359303 -0.0068,0.917937 0.09244,1.171654 0.03938,0.09805 0.09559,0.1856 0.168725,0.261197 0.07303,0.07371 0.161218,0.129231 0.258695,0.16863 0.256206,0.100102 0.810477,0.09504 1.169165,0.08998 0.05867,0 0.112547,0 0.158729,0 0.04622,0 0.09997,0 0.161217,0 0.356185,0.0055 0.910457,0.01094 1.16416,-0.08998 0.0975,-0.03925 0.185587,-0.09504 0.258708,-0.16863 0.07562,-0.07316 0.13183,-0.163146 0.170585,-0.261197 0.10065,-0.251214 0.09559,-0.807975 0.09053,-1.169165 0,-0.05812 -0.0027,-0.111727 -0.0027,-0.158701 0,-0.04622 0,-0.09983 0.0027,-0.160671 0.0055,-0.359303 0.0096,-0.915434 -0.09053,-1.16978 -0.0387,-0.09737 -0.0975,-0.184958 -0.170585,-0.258695 z m -0.94232,0.627365 c 0.529902,0.354312 0.671126,1.071688 0.317443,1.601577 -0.353683,0.531789 -1.071674,0.673642 -1.601576,0.319317 -0.529273,-0.35367 -0.673629,-1.071046 -0.319317,-1.603436 0.353683,-0.529916 1.071674,-0.673629 1.600947,-0.317458 z m 0.409929,-0.01928 c -0.04376,-0.0294 -0.07809,-0.0707 -0.09997,-0.119521 -0.02188,-0.05115 -0.02434,-0.105026 -0.01436,-0.158715 0.0096,-0.05115 0.03624,-0.09819 0.07316,-0.136944 0.03679,-0.03925 0.08561,-0.06373 0.136849,-0.07316 0.05374,-0.01094 0.107487,-0.0055 0.156212,0.01477 0.04882,0.02174 0.09244,0.05634 0.121846,0.09997 0.0294,0.04431 0.04376,0.09559 0.04376,0.149333 0,0.03378 -0.0068,0.0707 -0.01942,0.102565 -0.01231,0.03118 -0.03432,0.06058 -0.05621,0.08738 -0.02434,0.02434 -0.0562,0.04431 -0.08752,0.0588 -0.03432,0.01477 -0.06879,0.02174 -0.102427,0.02174 -0.05374,0 -0.107488,-0.01778 -0.149334,-0.04622 z m 2.099601,-1.274163 c 0,-0.498012 -0.40305,-0.900433 -0.901075,-0.900433 h -4.503545 c -0.495523,0 -0.897958,0.402421 -0.897958,0.900433 v 4.50855 c 0,0.495536 0.402435,0.90046 0.897958,0.90046 h 4.503545 c 0.498025,0 0.901075,-0.404924 0.901075,-0.90046 z m -1.28163,4.127366 c -0.261197,0.2637 -0.581143,0.346804 -0.94232,0.36368 -0.371187,0.02256 -1.484106,0.02256 -1.857167,0 -0.359303,-0.01764 -0.67862,-0.09997 -0.94232,-0.36368 -0.263699,-0.2637 -0.346804,-0.583016 -0.363679,-0.944207 -0.01997,-0.371173 -0.01997,-1.486581 0,-1.860257 0.01942,-0.358702 0.09997,-0.678634 0.363679,-0.94232 0.2637,-0.263714 0.583017,-0.346189 0.94232,-0.363693 0.373061,-0.02174 1.48598,-0.02174 1.857167,0 0.361177,0.01778 0.681123,0.09983 0.94232,0.363693 0.2637,0.263686 0.346804,0.583618 0.363679,0.94232 0.02188,0.371187 0.02188,1.486581 0,1.860257 -0.01682,0.358688 -0.09997,0.678634 -0.363679,0.941705 z"
         style="fill:#ffffff;fill-opacity:1;fill-rule:nonzero;stroke:none;stroke-width:0.624883" /></g></g></svg>
